<?xml version="1.0" encoding="UTF-8"?>
<svg id="Capa_2" data-name="Capa 2" xmlns="http://www.w3.org/2000/svg" viewBox="0 0 33.4 28.34">
  <defs>
    <style>
      .cls-1 {
        fill: none;
        stroke: #000;
        stroke-linecap: round;
        stroke-linejoin: round;
        stroke-width: 1.4px;
      }
    </style>
  </defs>
  <g id="Layer_1" data-name="Layer 1">
    <g>
      <path class="cls-1" d="M12.26,20.49H1.2c-.27,0-.5-.22-.5-.5V1.2c0-.27,.22-.5,.5-.5h31.01c.27,0,.5,.22,.5,.5V20c0,.27-.22,.5-.5,.5h-11.06"/>
      <circle class="cls-1" cx="16.7" cy="20.5" r="4.45"/>
      <circle class="cls-1" cx="16.7" cy="20.5" r="1.96"/>
      <path class="cls-1" d="M21.16,15.74c-2.46-2.46-6.46-2.46-8.92,0"/>
      <polyline class="cls-1" points="18.15 24.79 21 27.64 21 24.8 23.84 24.8 20.99 21.95"/>
      <polyline class="cls-1" points="15.25 24.79 12.4 27.64 12.4 24.8 9.56 24.8 12.41 21.95"/>
      <line class="cls-1" x1="23.59" y1="8.96" x2="9.96" y2="8.96"/>
      <line class="cls-1" x1="7.54" y1="5.77" x2="25.98" y2="5.77"/>
    </g>
  </g>
</svg>