<?xml version="1.0" encoding="UTF-8"?>
<svg id="Capa_2" data-name="Capa 2" xmlns="http://www.w3.org/2000/svg" viewBox="0 0 30.8 30.8">
  <defs>
    <style>
      .cls-1 {
        fill: none;
        stroke: #000;
        stroke-linecap: round;
        stroke-linejoin: round;
        stroke-width: 1.4px;
      }
    </style>
  </defs>
  <g id="Layer_1" data-name="Layer 1">
    <g>
      <path class="cls-1" d="M19.81,11.2c-.22-2.48-1.59-4.82-3.9-6.17-3.79-2.22-8.66-.96-10.88,2.83"/>
      <path class="cls-1" d="M29.42,26.16l-8.17-8.17c1.24-1.9,1.92-4.19,1.8-6.66-.27-5.64-4.82-10.26-10.45-10.61C5.86,.3,.3,5.86,.72,12.6c.35,5.64,4.97,10.18,10.61,10.45,2.46,.12,4.76-.56,6.66-1.8l8.17,8.17c.9,.9,2.36,.9,3.26,0h0c.9-.9,.9-2.36,0-3.26Z"/>
      <path class="cls-1" d="M21.25,17.99s-.54,.72-1.42,1.61"/>
    </g>
  </g>
</svg>