<?xml version="1.0" encoding="UTF-8"?>
<svg id="Capa_2" data-name="Capa 2" xmlns="http://www.w3.org/2000/svg" viewBox="0 0 33.4 31.1">
  <defs>
    <style>
      .cls-1 {
        fill: none;
        stroke: #000;
        stroke-linecap: round;
        stroke-linejoin: round;
        stroke-width: 1.4px;
      }
    </style>
  </defs>
  <g id="Layer_1" data-name="Layer 1">
    <g>
      <line class="cls-1" x1="26.83" y1="25.89" x2="24.94" y2="25.89"/>
      <line class="cls-1" x1="28.08" y1="20.99" x2="25.3" y2="20.99"/>
      <line class="cls-1" x1="29.01" y1="16.07" x2="25.64" y2="16.07"/>
      <path class="cls-1" d="M.7,30.4h7.5c.57,0,1.04-.47,1.04-1.04V11.1c0-.57-.47-1.04-1.04-1.04H.7V30.4Z"/>
      <path class="cls-1" d="M9.24,28.92s8.13,1.45,17.51,1.45c1.31,0,2.54-.71,2.54-2.23,0-1.26-1.04-2.24-2.45-2.24h1.05c1.31,0,2.45-.99,2.54-2.29,.09-1.43-1.04-2.62-2.45-2.62h1.05c1.31,0,2.45-.99,2.54-2.29,.09-1.43-1.04-2.62-2.45-2.62h1.05c1.31,0,2.45-.99,2.54-2.29,.09-1.43-1.04-2.62-2.45-2.62h-8.97c-.75,0-1.31-.69-1.15-1.42,.67-3.09,.09-5.75-.94-7.89-.91-1.89-3.75-1.28-3.79,.82-.13,7.12-6.16,9-6.16,9"/>
      <path class="cls-1" d="M6.42,27.04c0-.8-.65-1.45-1.45-1.45s-1.45,.65-1.45,1.45,.65,1.45,1.45,1.45,1.45-.65,1.45-1.45Z"/>
      <line class="cls-1" x1="4.97" y1="28.49" x2="4.97" y2="30.4"/>
    </g>
  </g>
</svg>