<?xml version="1.0" encoding="UTF-8"?>
<svg id="Capa_2" data-name="Capa 2" xmlns="http://www.w3.org/2000/svg" viewBox="0 0 43.4 43.4">
  <defs>
    <style>
      .cls-1 {
        fill: none;
        stroke: #000;
        stroke-linecap: round;
        stroke-linejoin: round;
        stroke-width: 1.4px;
      }
    </style>
  </defs>
  <g id="Layer_1" data-name="Layer 1">
    <g>
      <circle class="cls-1" cx="21.7" cy="21.7" r="11.2" transform="translate(-2.04 41.15) rotate(-84.31)"/>
      <path class="cls-1" d="M23.02,.7h-2.64c-1.18,0-2.13,.95-2.13,2.13h0c0,.94-.61,1.77-1.51,2.04-1.2,.35-2.35,.83-3.43,1.42-.82,.45-1.85,.3-2.51-.37h0c-.83-.83-2.18-.83-3.01,0l-1.87,1.87c-.83,.83-.83,2.18,0,3.01h0c.66,.67,.82,1.69,.37,2.51-.59,1.08-1.07,2.23-1.42,3.43-.26,.9-1.1,1.51-2.04,1.51h0c-1.18,0-2.13,.95-2.13,2.13v2.64c0,1.18,.95,2.13,2.13,2.13h0c.94,0,1.77,.61,2.04,1.51,.35,1.2,.83,2.35,1.42,3.43,.45,.82,.3,1.85-.37,2.51h0c-.83,.83-.83,2.18,0,3.01l1.87,1.87c.83,.83,2.18,.83,3.01,0h0c.66-.67,1.69-.82,2.51-.37,1.08,.59,2.23,1.07,3.43,1.42,.9,.26,1.51,1.1,1.51,2.04h0c0,1.18,.95,2.13,2.13,2.13h2.64c1.18,0,2.13-.95,2.13-2.13h0c0-.94,.61-1.77,1.51-2.04,1.2-.35,2.35-.83,3.43-1.42,.82-.45,1.85-.3,2.51,.37h0c.83,.83,2.18,.83,3.01,0l1.87-1.87c.83-.83,.83-2.18,0-3.01h0c-.66-.67-.82-1.69-.37-2.51,.59-1.08,1.07-2.23,1.42-3.43,.26-.9,1.1-1.51,2.04-1.51h0c1.18,0,2.13-.95,2.13-2.13v-2.64c0-1.18-.95-2.13-2.13-2.13h0c-.94,0-1.77-.61-2.04-1.51-.35-1.2-.83-2.35-1.42-3.43-.45-.82-.3-1.85,.37-2.51h0c.83-.83,.83-2.18,0-3.01l-1.87-1.87c-.83-.83-2.18-.83-3.01,0h0c-.66,.67-1.69,.82-2.51,.37-1.08-.59-2.23-1.07-3.43-1.42-.9-.26-1.51-1.1-1.51-2.04h0c0-1.18-.95-2.13-2.13-2.13Z"/>
    </g>
  </g>
</svg>