<?xml version="1.0" encoding="UTF-8"?>
<svg id="Capa_2" data-name="Capa 2" xmlns="http://www.w3.org/2000/svg" viewBox="0 0 23.31 25.93">
  <defs>
    <style>
      .cls-1 {
        fill: none;
        stroke: #4d4d4d;
        stroke-linecap: round;
        stroke-linejoin: round;
        stroke-width: 1.4px;
      }
    </style>
  </defs>
  <g id="Layer_1" data-name="Layer 1">
    <g>
      <path class="cls-1" d="M17.33,25.23H5.99c-.52,0-.96-.39-1.02-.91L2.89,6.08c-.05-.4,.27-.76,.67-.76H19.75c.41,0,.72,.35,.67,.76l-2.08,18.24c-.06,.52-.5,.91-1.02,.91Z"/>
      <line class="cls-1" x1="11.66" y1="21.07" x2="11.66" y2="9.49"/>
      <line class="cls-1" x1="14.54" y1="21.07" x2="15.32" y2="9.49"/>
      <line class="cls-1" x1="8.77" y1="21.07" x2="8" y2="9.49"/>
      <path class="cls-1" d="M22.61,6.04h0c0-1.52-1.23-2.75-2.75-2.75H3.45c-1.52,0-2.75,1.23-2.75,2.75H.7"/>
      <path class="cls-1" d="M15.71,3.29c0-1.43-1.16-2.59-2.59-2.59h-2.93c-1.43,0-2.59,1.16-2.59,2.59"/>
    </g>
  </g>
</svg>