<?xml version="1.0" encoding="UTF-8"?>
<svg id="Capa_2" data-name="Capa 2" xmlns="http://www.w3.org/2000/svg" xmlns:xlink="http://www.w3.org/1999/xlink" viewBox="0 0 78.73 25.43">
  <defs>
    <style>
      .cls-1 {
        clip-path: url(#clippath);
      }

      .cls-2 {
        fill: none;
      }

      .cls-3 {
        fill: url(#linear-gradient);
      }
    </style>
    <clipPath id="clippath">
      <path class="cls-2" d="M23.21,.45l-6.62,16.74L13.91,2.96c-.31-1.59-1.56-2.51-2.93-2.51H.15l-.15,.71c2.22,.48,4.75,1.26,6.28,2.09,.94,.51,1.2,.95,1.51,2.16l5.07,19.63h6.72L29.89,.45h-6.68Zm9.41,0l-5.26,24.59h6.36L38.98,.45h-6.36Zm36.48,6.64l1.93,9.23h-5.28l3.35-9.23Zm-.93-6.64c-1.22,0-2.25,.71-2.71,1.8l-9.55,22.79h6.68l1.33-3.67h8.16l.77,3.67h5.88L73.59,.45h-5.43Zm-27.45,7.68c-.04,3.54,3.16,5.52,5.57,6.69,2.48,1.21,3.31,1.98,3.3,3.06-.02,1.65-1.98,2.38-3.81,2.41-3.2,.05-5.05-.86-6.53-1.55l-1.15,5.39c1.49,.68,4.23,1.28,7.07,1.31,6.68,0,11.05-3.3,11.08-8.41,.03-6.49-8.97-6.85-8.91-9.75,.02-.88,.86-1.82,2.7-2.06,.91-.12,3.42-.21,6.27,1.1l1.12-5.21c-1.53-.56-3.5-1.09-5.95-1.09-6.29,0-10.71,3.34-10.75,8.13"/>
    </clipPath>
    <linearGradient id="linear-gradient" x1="-3958.21" y1="4720.22" x2="-3957.58" y2="4720.22" gradientTransform="translate(500893.27 597335.44) scale(126.55 -126.55)" gradientUnits="userSpaceOnUse">
      <stop offset="0" stop-color="#241f5d"/>
      <stop offset="1" stop-color="#034ea1"/>
    </linearGradient>
  </defs>
  <g id="Layer_1" data-name="Layer 1">
    <g class="cls-1">
      <rect class="cls-3" y="0" width="78.73" height="25.43"/>
    </g>
  </g>
</svg>