<?xml version="1.0" encoding="UTF-8"?>
<svg id="Capa_2" data-name="Capa 2" xmlns="http://www.w3.org/2000/svg" viewBox="0 0 46.26 35.99">
  <defs>
    <style>
      .cls-1 {
        fill: #f79e1b;
      }

      .cls-2 {
        fill: #ff5f00;
      }

      .cls-3 {
        fill: #eb001b;
      }

      .cls-4 {
        fill: #f79410;
      }

      .cls-5 {
        fill: #231f20;
      }
    </style>
  </defs>
  <g id="Layer_1" data-name="Layer 1">
    <g>
      <path class="cls-5" d="M45.34,35.5v.09h.09s.03,0,.05-.01c.01,0,.02-.02,.02-.04,0-.01,0-.03-.02-.03-.01,0-.03-.01-.05-.01h-.09Zm.09-.06s.07,0,.1,.03c.02,.02,.04,.05,.04,.08,0,.03,0,.05-.03,.07-.02,.02-.05,.03-.08,.03l.12,.13h-.09l-.11-.13h-.03v.13h-.07v-.35h.16Zm-.02,.47s.08,0,.11-.02c.03-.01,.07-.04,.09-.06,.03-.03,.05-.06,.06-.09,.03-.07,.03-.16,0-.23-.01-.03-.04-.07-.06-.09-.03-.03-.06-.05-.09-.06-.04-.01-.07-.02-.11-.02-.04,0-.08,0-.12,.02-.04,.01-.07,.04-.09,.06-.08,.09-.11,.21-.06,.32,.01,.03,.04,.07,.06,.09,.03,.03,.06,.05,.09,.06,.04,.02,.08,.02,.12,.02m0-.67c.1,0,.2,.04,.27,.11,.03,.03,.06,.08,.08,.12,.04,.09,.04,.2,0,.29-.02,.04-.05,.09-.08,.12-.04,.03-.08,.06-.12,.08-.05,.02-.1,.03-.15,.03-.05,0-.1,0-.15-.03-.05-.02-.09-.05-.12-.08-.03-.04-.06-.08-.08-.12-.04-.09-.04-.2,0-.29,.02-.05,.05-.09,.08-.12,.04-.04,.08-.06,.12-.08,.05-.02,.1-.03,.15-.03m-35.41-1.35c0-.67,.44-1.22,1.15-1.22s1.14,.52,1.14,1.22-.46,1.22-1.14,1.22-1.15-.55-1.15-1.22m3.07,0v-1.9h-.83v.46c-.26-.34-.66-.56-1.2-.56-1.06,0-1.9,.83-1.9,1.99s.83,1.99,1.9,1.99c.54,0,.94-.21,1.2-.56v.46h.82v-1.9h0Zm27.89,0c0-.67,.44-1.22,1.15-1.22s1.14,.52,1.14,1.22-.46,1.22-1.14,1.22-1.15-.55-1.15-1.22m3.07,0v-3.42h-.83v1.99c-.26-.34-.66-.56-1.2-.56-1.06,0-1.9,.83-1.9,1.99s.83,1.99,1.9,1.99c.54,0,.94-.21,1.2-.56v.46h.83v-1.9Zm-20.72-1.25c.53,0,.87,.33,.96,.92h-1.97c.09-.55,.42-.92,1.01-.92m.02-.74c-1.11,0-1.89,.81-1.89,1.99s.81,1.99,1.95,1.99c.57,0,1.1-.14,1.56-.53l-.4-.61c-.32,.25-.72,.4-1.1,.4-.53,0-1.02-.25-1.14-.93h2.82c0-.1,.02-.21,.02-.32,0-1.18-.74-1.99-1.8-1.99m9.97,1.99c0-.67,.44-1.22,1.15-1.22s1.14,.52,1.14,1.22-.46,1.22-1.14,1.22-1.15-.55-1.15-1.22m3.07,0v-1.9h-.82v.46c-.26-.34-.66-.56-1.2-.56-1.06,0-1.9,.83-1.9,1.99s.83,1.99,1.9,1.99c.54,0,.94-.21,1.2-.56v.46h.83v-1.9h0Zm-7.73,0c0,1.15,.8,1.99,2.03,1.99,.57,0,.95-.13,1.36-.45l-.4-.67c-.31,.22-.64,.34-.99,.34-.66,0-1.14-.48-1.14-1.22s.48-1.21,1.14-1.22c.36,0,.68,.12,.99,.34l.4-.67c-.41-.33-.79-.45-1.36-.45-1.22,0-2.03,.84-2.03,1.99m10.64-1.99c-.48,0-.79,.22-1,.56v-.46h-.82v3.8h.83v-2.13c0-.63,.27-.98,.81-.98,.18,0,.35,.03,.52,.1l.25-.78c-.18-.07-.42-.1-.59-.1m-22.12,.4c-.4-.26-.94-.4-1.55-.4-.96,0-1.58,.46-1.58,1.22,0,.62,.46,1,1.31,1.12l.39,.06c.45,.06,.67,.18,.67,.4,0,.29-.3,.46-.87,.46s-.98-.18-1.26-.4l-.39,.64c.45,.33,1.02,.49,1.64,.49,1.1,0,1.73-.52,1.73-1.24,0-.67-.5-1.02-1.33-1.14l-.39-.06c-.36-.05-.64-.12-.64-.37,0-.28,.27-.44,.72-.44,.48,0,.95,.18,1.18,.33l.36-.67h0Zm10.65-.4c-.48,0-.79,.22-1,.56v-.46h-.82v3.8h.83v-2.13c0-.63,.27-.98,.81-.98,.18,0,.35,.03,.52,.1l.25-.78c-.18-.07-.42-.1-.59-.1m-7.04,.1h-1.35v-1.15h-.83v1.15h-.77v.75h.77v1.73c0,.88,.34,1.41,1.32,1.41,.36,0,.77-.11,1.03-.29l-.24-.71c-.25,.14-.52,.21-.73,.21-.41,0-.55-.25-.55-.64v-1.72h1.35v-.76Zm-12.34,3.8v-2.38c0-.9-.57-1.5-1.49-1.51-.48,0-.98,.14-1.33,.68-.26-.42-.67-.68-1.25-.68-.41,0-.8,.12-1.11,.56v-.47h-.83v3.8h.83v-2.1c0-.66,.37-1.01,.93-1.01s.83,.36,.83,1v2.11h.83v-2.1c0-.66,.38-1.01,.93-1.01s.83,.36,.83,1v2.11h.84Z"/>
      <path class="cls-4" d="M45.81,23.16v-.56h-.14l-.17,.38-.17-.38h-.15v.56h.1v-.42l.16,.36h.11l.16-.36v.42h.1Zm-.92,0v-.46h.19v-.09h-.47v.09h.19v.46h.1Z"/>
      <path class="cls-2" d="M29.38,25.54h-12.51V3.06h12.51V25.54Z"/>
      <path class="cls-3" d="M17.67,14.3c0-4.56,2.14-8.62,5.46-11.24C20.61,1.07,17.5,0,14.29,0,6.4,0,0,6.4,0,14.3s6.4,14.3,14.29,14.3c3.2,0,6.32-1.07,8.83-3.06-3.32-2.62-5.46-6.68-5.46-11.24"/>
      <path class="cls-1" d="M46.26,14.3c0,7.9-6.4,14.3-14.29,14.3-3.21,0-6.32-1.07-8.84-3.06,3.33-2.62,5.46-6.68,5.46-11.24s-2.14-8.62-5.46-11.24C25.65,1.07,28.76,0,31.97,0,39.86,0,46.26,6.4,46.26,14.3"/>
    </g>
  </g>
</svg>