<?xml version="1.0" encoding="UTF-8"?>
<svg id="Capa_2" data-name="Capa 2" xmlns="http://www.w3.org/2000/svg" viewBox="0 0 22.77 27.38">
  <defs>
    <style>
      .cls-1 {
        fill: none;
        stroke: #000;
        stroke-linecap: round;
        stroke-linejoin: round;
        stroke-width: 1.27px;
      }
    </style>
  </defs>
  <g id="Layer_1" data-name="Layer 1">
    <g>
      <path class="cls-1" d="M7.1,6.77L2.8,12.55c-1.37,1.84-2.17,4.07-2.17,6.37,0,3.55,1.87,7.82,10.75,7.82"/>
      <path class="cls-1" d="M15.67,6.77l4.3,5.78c1.37,1.84,2.17,4.07,2.17,6.37,0,3.55-1.87,7.82-10.75,7.82"/>
      <rect class="cls-1" x="6.19" y="5.04" width="10.39" height="1.73" rx=".55" ry=".55"/>
      <path class="cls-1" d="M14.37,1.22l-.83,.83-.37-.37c-.96-.96-2.51-.96-3.47,0l-.37,.37-.83-.83c-.77-.77-2.03-.77-2.81,0l-1.03,1.03,2.88,2.79h7.79l2.88-2.79-1.03-1.03c-.77-.77-2.03-.77-2.81,0Z"/>
      <path class="cls-1" d="M7.29,20.67l4.76-6.24c.1-.13,0-.31-.16-.31h-3.98c-.11,0-.2-.09-.2-.2v-1.2c0-.11,.09-.2,.2-.2h7.51c.16,0,.25,.19,.16,.31l-4.77,6.24c-.1,.13,0,.31,.16,.31h4.41c.11,0,.2,.09,.2,.2v1.2c0,.11-.09,.2-.2,.2H7.45c-.16,0-.25-.19-.16-.31Z"/>
    </g>
  </g>
</svg>