<?xml version="1.0" encoding="UTF-8"?>
<svg id="Capa_2" data-name="Capa 2" xmlns="http://www.w3.org/2000/svg" viewBox="0 0 35.76 24.52">
  <defs>
    <style>
      .cls-1 {
        fill: none;
        stroke: #000;
        stroke-linecap: round;
        stroke-linejoin: round;
        stroke-width: 1.27px;
      }
    </style>
  </defs>
  <g id="Layer_1" data-name="Layer 1">
    <g>
      <g>
        <path class="cls-1" d="M16.76,18.12h1.95c1.87,0,3.69-.56,5.23-1.61l1.43-.97c.24-.16,.32-.48,.16-.72-.23-.34-.52-.59-.82-.76-.7-.41-1.55-.37-2.28-.02-2.65,1.29-5,.2-5,.2-.86-.54-1.68-.95-2.45-1.27-3.27-1.34-7-.84-9.88,1.21h0"/>
        <path class="cls-1" d="M5.1,21.05s4.42-.86,12.15-.42c2.04,.12,4.07-.34,5.88-1.29l11.75-6.2c.26-.14,.32-.47,.15-.7-.42-.54-1.38-1.28-3.29-.78-.22,.06-.43,.14-.64,.23l-5.91,2.52"/>
        <polyline class="cls-1" points=".63 23.88 4.98 23.88 4.98 12.67 .63 12.67"/>
      </g>
      <rect class="cls-1" x="14.63" y="7.75" width="13.23" height="2.37"/>
      <rect class="cls-1" x="15.36" y="5.38" width="13.23" height="2.37"/>
      <rect class="cls-1" x="14.63" y="3" width="13.23" height="2.37"/>
      <rect class="cls-1" x="16.61" y=".63" width="13.23" height="2.37"/>
    </g>
  </g>
</svg>