<?xml version="1.0" encoding="UTF-8"?>
<svg id="Capa_2" data-name="Capa 2" xmlns="http://www.w3.org/2000/svg" viewBox="0 0 22.31 20.81">
  <defs>
    <style>
      .cls-1 {
        fill: none;
        stroke: #000;
        stroke-linecap: round;
        stroke-linejoin: round;
        stroke-width: 1.43px;
      }
    </style>
  </defs>
  <g id="Layer_1" data-name="Layer 1">
    <g>
      <line class="cls-1" x1="4.55" y1="3.66" x2="5.78" y2="3.66"/>
      <line class="cls-1" x1="3.73" y1="6.86" x2="5.54" y2="6.86"/>
      <line class="cls-1" x1="3.13" y1="10.07" x2="5.33" y2="10.07"/>
      <path class="cls-1" d="M21.59,.72h-4.89c-.37,0-.68,.3-.68,.68V13.31c0,.37,.3,.68,.68,.68h4.89s0-13.27,0-13.27Z"/>
      <path class="cls-1" d="M16.02,1.69S10.71,.74,4.6,.74c-.85,0-1.65,.46-1.65,1.46,0,.82,.68,1.46,1.6,1.46h-.69c-.85,0-1.6,.64-1.65,1.5-.06,.93,.68,1.71,1.6,1.71h-.69c-.85,0-1.6,.64-1.65,1.5-.06,.93,.68,1.71,1.6,1.71h-.69c-.85,0-1.6,.64-1.65,1.5-.06,.93,.68,1.71,1.6,1.71h5.85c.49,0,.86,.45,.75,.93-.44,2.02-.06,3.75,.61,5.14,.59,1.24,2.45,.84,2.47-.53,.09-4.64,4.02-5.87,4.02-5.87"/>
      <path class="cls-1" d="M17.86,2.91c0,.52,.42,.94,.94,.94s.94-.42,.94-.94-.42-.94-.94-.94-.94,.42-.94,.94Z"/>
      <line class="cls-1" x1="18.8" y1="1.97" x2="18.8" y2=".72"/>
    </g>
  </g>
</svg>