<?xml version="1.0" encoding="UTF-8"?>
<svg id="Capa_2" data-name="Capa 2" xmlns="http://www.w3.org/2000/svg" viewBox="0 0 19.11 7.27">
  <defs>
    <style>
      .cls-1 {
        fill: none;
        stroke: #000;
        stroke-linecap: round;
        stroke-linejoin: round;
        stroke-width: 1.4px;
      }
    </style>
  </defs>
  <g id="Layer_1" data-name="Layer 1">
    <g>
      <path class="cls-1" d="M13.72,.7h1.76c1.62,0,2.93,1.31,2.93,2.93h0c0,1.62-1.31,2.93-2.93,2.93h-5.2c-1.62,0-2.93-1.31-2.93-2.93h0c0-.36,.07-.71,.19-1.04"/>
      <path class="cls-1" d="M5.39,6.56h-1.76c-1.62,0-2.93-1.31-2.93-2.93H.7c0-1.62,1.31-2.93,2.93-2.93h5.2c1.62,0,2.93,1.31,2.93,2.93h0c0,.36-.07,.71-.19,1.04"/>
    </g>
  </g>
</svg>