<?xml version="1.0" encoding="UTF-8"?>
<svg id="Capa_2" data-name="Capa 2" xmlns="http://www.w3.org/2000/svg" viewBox="0 0 39.4 34.44">
  <defs>
    <style>
      .cls-1 {
        fill: none;
        stroke: #000;
        stroke-linecap: round;
        stroke-linejoin: round;
        stroke-width: 1.4px;
      }
    </style>
  </defs>
  <g id="Layer_1" data-name="Layer 1">
    <g>
      <g>
        <path class="cls-1" d="M18.47,27.39h2.15c2.06,0,4.06-.62,5.76-1.77l1.57-1.07c.26-.18,.35-.53,.18-.79-.25-.38-.57-.65-.9-.84-.77-.45-1.71-.41-2.51-.02-2.91,1.42-5.51,.22-5.51,.22-.94-.59-1.85-1.05-2.7-1.4-3.6-1.48-7.71-.93-10.88,1.33h0"/>
        <path class="cls-1" d="M5.62,30.62s4.87-.95,13.38-.46c2.25,.13,4.49-.38,6.48-1.43l12.95-6.83c.28-.15,.36-.51,.16-.77-.46-.59-1.52-1.42-3.63-.86-.24,.06-.47,.15-.7,.25l-6.51,2.78"/>
        <polyline class="cls-1" points=".7 33.74 5.49 33.74 5.49 21.38 .7 21.38"/>
      </g>
      <polygon class="cls-1" points="17.47 10.39 17.47 17.63 28.51 17.63 28.51 10.39 32.68 10.39 22.99 .7 13.31 10.39 17.47 10.39"/>
    </g>
  </g>
</svg>