<?xml version="1.0" encoding="UTF-8"?>
<svg id="Capa_2" data-name="Capa 2" xmlns="http://www.w3.org/2000/svg" viewBox="0 0 22.31 20.81">
  <defs>
    <style>
      .cls-1 {
        fill: none;
        stroke: #000;
        stroke-linecap: round;
        stroke-linejoin: round;
        stroke-width: 1.43px;
      }
    </style>
  </defs>
  <g id="Layer_1" data-name="Layer 1">
    <g>
      <line class="cls-1" x1="17.76" y1="17.14" x2="16.53" y2="17.14"/>
      <line class="cls-1" x1="18.57" y1="13.95" x2="16.76" y2="13.95"/>
      <line class="cls-1" x1="19.18" y1="10.74" x2="16.98" y2="10.74"/>
      <path class="cls-1" d="M.72,20.09H5.61c.37,0,.68-.3,.68-.68V7.5c0-.37-.3-.68-.68-.68H.72v13.27Z"/>
      <path class="cls-1" d="M6.29,19.12s5.31,.94,11.42,.94c.85,0,1.65-.46,1.65-1.46,0-.82-.68-1.46-1.6-1.46h.69c.85,0,1.6-.64,1.65-1.5,.06-.93-.68-1.71-1.6-1.71h.69c.85,0,1.6-.64,1.65-1.5,.06-.93-.68-1.71-1.6-1.71h.69c.85,0,1.6-.64,1.65-1.5,.06-.93-.68-1.71-1.6-1.71h-5.85c-.49,0-.86-.45-.75-.93,.44-2.02,.06-3.75-.61-5.14-.59-1.24-2.45-.84-2.47,.53-.09,4.64-4.02,5.87-4.02,5.87"/>
      <path class="cls-1" d="M4.45,17.9c0-.52-.42-.94-.94-.94s-.94,.42-.94,.94,.42,.94,.94,.94,.94-.42,.94-.94Z"/>
      <line class="cls-1" x1="3.5" y1="18.84" x2="3.5" y2="20.09"/>
    </g>
  </g>
</svg>