<?xml version="1.0" encoding="UTF-8"?>
<svg id="Capa_2" data-name="Capa 2" xmlns="http://www.w3.org/2000/svg" viewBox="0 0 39.4 32.36">
  <defs>
    <style>
      .cls-1 {
        fill: none;
        stroke: #000;
        stroke-linecap: round;
        stroke-linejoin: round;
        stroke-width: 1.4px;
      }
    </style>
  </defs>
  <g id="Layer_1" data-name="Layer 1">
    <g>
      <path class="cls-1" d="M38.7,10.13V29.8c0,1.03-.83,1.86-1.86,1.86H2.56c-1.03,0-1.86-.83-1.86-1.86V10.13"/>
      <g>
        <path class="cls-1" d="M7.21,4.18c-.09,.21-.14,.43-.14,.67,0,.97,.79,1.76,1.76,1.76s1.76-.79,1.76-1.76c0-.24-.05-.47-.14-.67"/>
        <line class="cls-1" x1="8.83" y1="4.83" x2="8.83" y2=".7"/>
      </g>
      <g>
        <path class="cls-1" d="M32.19,4.18c.09,.21,.14,.43,.14,.67,0,.97-.79,1.76-1.76,1.76s-1.76-.79-1.76-1.76c0-.24,.05-.47,.14-.67"/>
        <line class="cls-1" x1="30.57" y1="4.83" x2="30.57" y2=".7"/>
      </g>
      <line class="cls-1" x1="28.63" y1="1.85" x2="10.78" y2="1.85"/>
      <path class="cls-1" d="M6.89,1.85H2.56c-1.03,0-1.86,.83-1.86,1.86v6.42H38.7V3.71c0-1.03-.83-1.86-1.86-1.86h-4.32"/>
      <g>
        <line class="cls-1" x1="11.47" y1="14.2" x2="11.47" y2="18.06"/>
        <line class="cls-1" x1="16.96" y1="14.2" x2="16.96" y2="18.06"/>
        <line class="cls-1" x1="22.45" y1="14.2" x2="22.45" y2="18.06"/>
        <line class="cls-1" x1="27.94" y1="14.2" x2="27.94" y2="18.06"/>
        <line class="cls-1" x1="11.47" y1="23.66" x2="11.47" y2="27.52"/>
        <line class="cls-1" x1="16.96" y1="23.66" x2="16.96" y2="27.52"/>
        <line class="cls-1" x1="22.45" y1="23.66" x2="22.45" y2="27.52"/>
        <line class="cls-1" x1="27.94" y1="23.66" x2="27.94" y2="27.52"/>
      </g>
      <line class="cls-1" x1="8.37" y1="20.89" x2="31.03" y2="20.89"/>
      <line class="cls-1" x1="26.26" y1="5" x2="13.15" y2="5"/>
    </g>
  </g>
</svg>