<?xml version="1.0" encoding="UTF-8"?>
<svg id="Capa_2" data-name="Capa 2" xmlns="http://www.w3.org/2000/svg" viewBox="0 0 43.4 46.84">
  <defs>
    <style>
      .cls-1 {
        fill: none;
        stroke: #000;
        stroke-linecap: round;
        stroke-linejoin: round;
        stroke-width: 1.4px;
      }
    </style>
  </defs>
  <g id="Layer_1" data-name="Layer 1">
    <g>
      <g>
        <line class="cls-1" x1="9.2" y1="36.45" x2="3.32" y2="36.45"/>
        <line class="cls-1" x1="24.14" y1="5.21" x2="3.32" y2="5.21"/>
      </g>
      <path class="cls-1" d="M15.08,43.6H3.96c-1.8,0-3.26-1.46-3.26-3.26V3.96C.7,2.16,2.16,.7,3.96,.7H23.5c1.8,0,3.26,1.46,3.26,3.26V23.02"/>
      <line class="cls-1" x1="11.15" y1="2.98" x2="16.31" y2="2.98"/>
      <line class="cls-1" x1="42.7" y1="43.6" x2="15.08" y2="43.6"/>
      <g>
        <path class="cls-1" d="M15.97,27c0,.96-.78,1.74-1.74,1.74s-1.74-.78-1.74-1.74,.78-1.74,1.74-1.74,1.74,.78,1.74,1.74Z"/>
        <path class="cls-1" d="M17.94,28.57c.23,.11,.48,.17,.75,.17,.96,0,1.74-.78,1.74-1.74s-.78-1.74-1.74-1.74c-.27,0-.52,.06-.75,.17"/>
      </g>
      <line class="cls-1" x1="12.41" y1="36.18" x2="15.58" y2="36.18"/>
      <line class="cls-1" x1="18.42" y1="36.18" x2="21.59" y2="36.18"/>
      <line class="cls-1" x1="24.42" y1="36.18" x2="27.6" y2="36.18"/>
      <line class="cls-1" x1="30.43" y1="36.18" x2="33.61" y2="36.18"/>
      <rect class="cls-1" x="9.2" y="23.02" width="27.62" height="17.24" rx="2.68" ry="2.68"/>
      <path class="cls-1" d="M36.82,28.9h4.03c1.02,0,1.85,.83,1.85,1.85v13.53c0,1.02-.83,1.85-1.85,1.85H16.94c-1.02,0-1.85-.83-1.85-1.85v-4.03"/>
      <rect class="cls-1" x="28.9" y="25.25" width="4.7" height="3.49" rx=".99" ry=".99"/>
    </g>
  </g>
</svg>