<?xml version="1.0" encoding="UTF-8"?>
<svg id="Capa_2" data-name="Capa 2" xmlns="http://www.w3.org/2000/svg" xmlns:xlink="http://www.w3.org/1999/xlink" viewBox="0 0 30.41 30.41">
  <defs>
    <style>
      .cls-1 {
        fill: url(#linear-gradient-2);
      }

      .cls-2 {
        fill: url(#linear-gradient-3);
      }

      .cls-3 {
        fill: url(#linear-gradient);
      }
    </style>
    <linearGradient id="linear-gradient" x1="1.64" y1="28.78" x2="28.02" y2="2.39" gradientUnits="userSpaceOnUse">
      <stop offset="0" stop-color="#fec91d"/>
      <stop offset=".49" stop-color="#f61904"/>
      <stop offset="1" stop-color="#bf01a3"/>
    </linearGradient>
    <linearGradient id="linear-gradient-2" x1="1.64" y1="28.78" x2="28.02" y2="2.39" xlink:href="#linear-gradient"/>
    <linearGradient id="linear-gradient-3" x1="1.64" y1="28.78" x2="28.02" y2="2.39" xlink:href="#linear-gradient"/>
  </defs>
  <g id="Layer_1" data-name="Layer 1">
    <g>
      <path class="cls-3" d="M15.21,2.74c4.06,0,4.54,.02,6.14,.09,1.48,.07,2.29,.32,2.82,.52,.71,.28,1.22,.61,1.75,1.14,.53,.53,.86,1.04,1.14,1.75,.21,.54,.46,1.34,.52,2.82,.07,1.6,.09,2.08,.09,6.14s-.02,4.54-.09,6.14c-.07,1.48-.32,2.29-.52,2.82-.28,.71-.61,1.22-1.14,1.75s-1.04,.86-1.75,1.14c-.54,.21-1.34,.46-2.82,.52-1.6,.07-2.08,.09-6.14,.09s-4.54-.02-6.14-.09c-1.48-.07-2.29-.32-2.82-.52-.71-.28-1.22-.61-1.75-1.14-.53-.53-.86-1.04-1.14-1.75-.21-.54-.46-1.34-.52-2.82-.07-1.6-.09-2.08-.09-6.14s.02-4.54,.09-6.14c.07-1.48,.32-2.29,.52-2.82,.28-.71,.61-1.22,1.14-1.75,.53-.53,1.04-.86,1.75-1.14,.54-.21,1.34-.46,2.82-.52,1.6-.07,2.08-.09,6.14-.09m0-2.74c-4.13,0-4.65,.02-6.27,.09-1.62,.07-2.72,.33-3.69,.71-1,.39-1.85,.91-2.69,1.75-.85,.85-1.37,1.69-1.75,2.69-.38,.97-.63,2.07-.71,3.69-.07,1.62-.09,2.14-.09,6.27s.02,4.65,.09,6.27c.07,1.62,.33,2.72,.71,3.69,.39,1,.91,1.85,1.75,2.69,.85,.85,1.69,1.37,2.69,1.75,.97,.38,2.07,.63,3.69,.71,1.62,.07,2.14,.09,6.27,.09s4.65-.02,6.27-.09c1.62-.07,2.72-.33,3.69-.71,1-.39,1.85-.91,2.69-1.75,.85-.85,1.37-1.69,1.75-2.69,.38-.97,.63-2.07,.71-3.69,.07-1.62,.09-2.14,.09-6.27s-.02-4.65-.09-6.27c-.07-1.62-.33-2.72-.71-3.69-.39-1-.91-1.85-1.75-2.69-.85-.85-1.69-1.37-2.69-1.75-.97-.38-2.07-.63-3.69-.71-1.62-.07-2.14-.09-6.27-.09h0Z"/>
      <path class="cls-1" d="M15.21,7.4c-4.31,0-7.81,3.5-7.81,7.81s3.5,7.81,7.81,7.81,7.81-3.5,7.81-7.81-3.5-7.81-7.81-7.81Zm0,12.88c-2.8,0-5.07-2.27-5.07-5.07s2.27-5.07,5.07-5.07,5.07,2.27,5.07,5.07-2.27,5.07-5.07,5.07Z"/>
      <circle class="cls-2" cx="23.32" cy="7.09" r="1.82"/>
    </g>
  </g>
</svg>