<?xml version="1.0" encoding="UTF-8"?>
<svg id="Capa_2" data-name="Capa 2" xmlns="http://www.w3.org/2000/svg" viewBox="0 0 30.41 30.41">
  <defs>
    <style>
      .cls-1 {
        fill: #0077b7;
      }
    </style>
  </defs>
  <g id="Layer_1" data-name="Layer 1">
    <path id="Path_2520" data-name="Path 2520" class="cls-1" d="M25.91,25.91h-4.51v-7.06c0-1.68-.03-3.85-2.34-3.85s-2.71,1.83-2.71,3.73v7.18h-4.51V11.4h4.33v1.98h.06c.88-1.51,2.52-2.41,4.27-2.34,4.57,0,5.41,3,5.41,6.91v7.96ZM6.77,9.42c-1.44,0-2.62-1.17-2.62-2.61,0-1.44,1.17-2.62,2.61-2.62,1.44,0,2.62,1.17,2.62,2.61,0,1.44-1.17,2.62-2.61,2.62h0m2.25,16.5H4.51V11.4h4.51v14.51ZM28.16,0H2.24C1.02-.01,.01,.97,0,2.19V28.22c.01,1.23,1.02,2.21,2.24,2.19H28.16c1.23,.02,2.24-.97,2.25-2.19V2.19C30.39,.97,29.39-.02,28.16,0"/>
  </g>
</svg>