<?xml version="1.0" encoding="UTF-8"?>
<svg id="Capa_2" data-name="Capa 2" xmlns="http://www.w3.org/2000/svg" viewBox="0 0 37.43 30.41">
  <defs>
    <style>
      .cls-1 {
        fill: #00c0fa;
      }
    </style>
  </defs>
  <g id="Layer_1" data-name="Layer 1">
    <g id="Logo">
      <path id="white_background" data-name="white background" class="cls-1" d="M33.6,7.57c.02,.33,.02,.66,.02,.99,0,10.15-7.72,21.85-21.85,21.85h0c-4.17,0-8.26-1.2-11.77-3.45,.61,.07,1.22,.11,1.83,.11,3.46,0,6.82-1.16,9.54-3.29-3.29-.06-6.17-2.2-7.17-5.33,1.15,.22,2.34,.18,3.47-.13-3.58-.72-6.16-3.87-6.16-7.53v-.1c1.07,.59,2.26,.92,3.49,.96C1.61,9.4,.57,4.91,2.61,1.4c3.9,4.8,9.65,7.71,15.83,8.02-.62-2.67,.23-5.46,2.22-7.34,3.09-2.91,7.96-2.76,10.86,.33,1.72-.34,3.37-.97,4.88-1.86-.57,1.78-1.77,3.29-3.38,4.25,1.52-.18,3.01-.59,4.41-1.21-1.03,1.54-2.33,2.89-3.83,3.98Z"/>
    </g>
  </g>
</svg>