<?xml version="1.0" encoding="UTF-8"?>
<svg id="Capa_2" data-name="Capa 2" xmlns="http://www.w3.org/2000/svg" viewBox="0 0 44.99 23.85">
  <defs>
    <style>
      .cls-1 {
        fill: none;
        stroke: #fff;
        stroke-linecap: round;
        stroke-miterlimit: 10;
        stroke-width: 1.62px;
      }
    </style>
  </defs>
  <g id="Layer_1" data-name="Layer 1">
    <g>
      <path class="cls-1" d="M22.5,15.62l-1.95-6.75c-.13-.39-.49-.65-.9-.65H10.68c-.41,0-.77,.26-.9,.65l-1.91,6.75"/>
      <path class="cls-1" d="M37.08,15.62l-1.88-6.75c-.13-.39-.49-.65-.9-.65h-8.98c-.41,0-.77,.26-.9,.65l-1.92,6.75"/>
      <path class="cls-1" d="M13.24,16.28c-.13-.39-.49-.65-.9-.65H3.36c-.41,0-.77,.26-.9,.65l-1.63,6.03c-.12,.36,.15,.73,.53,.73H14.33c.38,0,.64-.37,.53-.73l-1.63-6.03Z"/>
      <path class="cls-1" d="M27.88,16.28c-.13-.39-.49-.65-.9-.65h-8.98c-.41,0-.77,.26-.9,.65l-1.63,6.03c-.12,.36,.15,.73,.53,.73h12.96c.38,0,.64-.37,.53-.73l-1.63-6.03Z"/>
      <path class="cls-1" d="M29.74,8.22l-1.87-6.76c-.13-.39-.49-.65-.9-.65h-8.98c-.41,0-.77,.26-.9,.65l-1.86,6.76"/>
      <path class="cls-1" d="M42.52,16.28c-.13-.39-.49-.65-.9-.65h-8.98c-.41,0-.77,.26-.9,.65l-1.63,6.03c-.12,.36,.15,.73,.53,.73h12.96c.38,0,.64-.37,.53-.73l-1.63-6.03Z"/>
    </g>
  </g>
</svg>