<?xml version="1.0" encoding="UTF-8"?>
<svg id="Capa_2" data-name="Capa 2" xmlns="http://www.w3.org/2000/svg" viewBox="0 0 37.5 37.5">
  <defs>
    <style>
      .cls-1 {
        fill: #fff;
      }

      .cls-2 {
        fill: none;
        stroke: #fff;
        stroke-linecap: round;
        stroke-miterlimit: 10;
        stroke-width: 1.62px;
      }
    </style>
  </defs>
  <g id="Layer_1" data-name="Layer 1">
    <g>
      <circle class="cls-2" cx="18.75" cy="18.75" r="17.94" transform="translate(-5.75 28.89) rotate(-67.5)"/>
      <circle class="cls-2" cx="18.75" cy="18.75" r="13.88" transform="translate(-5.75 28.89) rotate(-67.5)"/>
      <path class="cls-2" d="M18.83,2.8c0-.08-.07-.15-.15-.15s-.15,.07-.15,.15,.07,.15,.15,.15,.15-.07,.15-.15Z"/>
      <path class="cls-2" d="M13.37,3.73c-.03-.08-.11-.12-.19-.09-.08,.03-.12,.11-.09,.19,.03,.08,.11,.12,.19,.09s.12-.11,.09-.19Z"/>
      <path class="cls-2" d="M8.56,6.47c-.05-.06-.15-.07-.21-.02-.06,.05-.07,.15-.02,.21,.05,.06,.15,.07,.21,.02s.07-.15,.02-.21Z"/>
      <path class="cls-2" d="M4.98,10.7c-.07-.04-.16-.02-.2,.05s-.02,.16,.05,.2c.07,.04,.16,.02,.2-.05s.02-.16-.05-.2Z"/>
      <path class="cls-2" d="M3.05,15.89c-.08-.01-.16,.04-.17,.12-.01,.08,.04,.16,.12,.17s.16-.04,.17-.12c.01-.08-.04-.16-.12-.17Z"/>
      <path class="cls-2" d="M3.02,21.43c-.08,.01-.13,.09-.12,.17,.01,.08,.09,.13,.17,.12s.13-.09,.12-.17-.09-.13-.17-.12Z"/>
      <path class="cls-2" d="M4.89,26.65c-.07,.04-.1,.13-.05,.2s.13,.1,.2,.05,.1-.13,.05-.2-.13-.1-.2-.05Z"/>
      <path class="cls-2" d="M8.43,30.91c-.05,.06-.04,.16,.02,.21,.06,.05,.16,.04,.21-.02,.05-.06,.04-.16-.02-.21-.06-.05-.16-.04-.21,.02Z"/>
      <path class="cls-2" d="M13.21,33.71c-.03,.08,.01,.16,.09,.19,.08,.03,.16-.01,.19-.09,.03-.08-.01-.16-.09-.19-.08-.03-.16,.01-.19,.09Z"/>
      <path class="cls-2" d="M18.66,34.7c0,.08,.07,.15,.15,.15s.15-.07,.15-.15-.07-.15-.15-.15-.15,.07-.15,.15Z"/>
      <path class="cls-2" d="M24.12,33.77c.03,.08,.11,.12,.19,.09,.08-.03,.12-.11,.09-.19-.03-.08-.11-.12-.19-.09-.08,.03-.12,.11-.09,.19Z"/>
      <path class="cls-2" d="M28.94,31.02c.05,.06,.15,.07,.21,.02,.06-.05,.07-.15,.02-.21-.05-.06-.15-.07-.21-.02-.06,.05-.07,.15-.02,.21Z"/>
      <path class="cls-2" d="M32.52,26.8c.07,.04,.16,.02,.2-.05s.02-.16-.05-.2-.16-.02-.2,.05c-.04,.07-.02,.16,.05,.2Z"/>
      <path class="cls-2" d="M34.44,21.6c.08,.01,.16-.04,.17-.12,.01-.08-.04-.16-.12-.17-.08-.01-.16,.04-.17,.12-.01,.08,.04,.16,.12,.17Z"/>
      <path class="cls-2" d="M34.47,16.06c.08-.01,.13-.09,.12-.17s-.09-.13-.17-.12c-.08,.01-.13,.09-.12,.17,.01,.08,.09,.13,.17,.12Z"/>
      <path class="cls-2" d="M32.61,10.85c.07-.04,.1-.13,.05-.2s-.13-.1-.2-.05c-.07,.04-.1,.13-.05,.2s.13,.1,.2,.05Z"/>
      <path class="cls-2" d="M29.07,6.58c.05-.06,.04-.16-.02-.21s-.16-.04-.21,.02c-.05,.06-.04,.16,.02,.21,.06,.05,.16,.04,.21-.02Z"/>
      <path class="cls-2" d="M24.28,3.79c.03-.08-.01-.16-.09-.19-.08-.03-.16,.01-.19,.09-.03,.08,.01,.16,.09,.19,.08,.03,.16-.01,.19-.09Z"/>
      <path class="cls-1" d="M12.45,24.7l7.24-9.49c.15-.2,0-.48-.24-.48h-6.05c-.16,0-.3-.13-.3-.3v-1.83c0-.16,.13-.3,.3-.3h11.42c.25,0,.39,.28,.24,.48l-7.25,9.49c-.15,.2,0,.48,.24,.48h6.7c.16,0,.3,.13,.3,.3v1.83c0,.16-.13,.3-.3,.3H12.68c-.25,0-.39-.28-.24-.48Z"/>
    </g>
  </g>
</svg>